<mxfile host="app.diagrams.net" modified="2024-02-12T14:29:49.876Z" agent="Mozilla/5.0 (Macintosh; Intel Mac OS X 10_15_7) AppleWebKit/537.36 (KHTML, like Gecko) Chrome/121.0.0.0 Safari/537.36" etag="xweA_TDaDiOO-_Et-rah" version="23.1.2" type="device">
  <diagram id="IeIk89UAV4FXAM-kmG9R" name="Page-1">
    <mxGraphModel dx="1020" dy="469" grid="1" gridSize="10" guides="1" tooltips="1" connect="1" arrows="1" fold="1" page="1" pageScale="1" pageWidth="827" pageHeight="1169" math="1" shadow="0">
      <root>
        <mxCell id="0" />
        <mxCell id="1" parent="0" />
        <mxCell id="Iqcuw4HUmVIINinJ4aH5-1" value="" style="rounded=0;whiteSpace=wrap;html=1;container=0;" parent="1" vertex="1">
          <mxGeometry x="80" y="80" width="40" height="40" as="geometry" />
        </mxCell>
        <mxCell id="Iqcuw4HUmVIINinJ4aH5-2" value="" style="rounded=0;whiteSpace=wrap;html=1;container=0;" parent="1" vertex="1">
          <mxGeometry x="120" y="80" width="40" height="40" as="geometry" />
        </mxCell>
        <mxCell id="Iqcuw4HUmVIINinJ4aH5-3" value="" style="rounded=0;whiteSpace=wrap;html=1;fillColor=#647687;fontColor=#ffffff;container=0;" parent="1" vertex="1">
          <mxGeometry x="160" y="80" width="40" height="40" as="geometry" />
        </mxCell>
        <mxCell id="Iqcuw4HUmVIINinJ4aH5-4" value="" style="rounded=0;whiteSpace=wrap;html=1;fillColor=#647687;fontColor=#ffffff;container=0;" parent="1" vertex="1">
          <mxGeometry x="200" y="80" width="40" height="40" as="geometry" />
        </mxCell>
        <mxCell id="Iqcuw4HUmVIINinJ4aH5-5" value="" style="rounded=0;whiteSpace=wrap;html=1;fillColor=#647687;fontColor=#ffffff;container=0;" parent="1" vertex="1">
          <mxGeometry x="240" y="80" width="40" height="40" as="geometry" />
        </mxCell>
        <mxCell id="Iqcuw4HUmVIINinJ4aH5-8" value="" style="rounded=0;whiteSpace=wrap;html=1;container=0;" parent="1" vertex="1">
          <mxGeometry x="80" y="120" width="40" height="40" as="geometry" />
        </mxCell>
        <mxCell id="Iqcuw4HUmVIINinJ4aH5-9" value="" style="rounded=0;whiteSpace=wrap;html=1;fillColor=#647687;fontColor=#ffffff;container=0;" parent="1" vertex="1">
          <mxGeometry x="120" y="120" width="40" height="40" as="geometry" />
        </mxCell>
        <mxCell id="Iqcuw4HUmVIINinJ4aH5-10" value="" style="rounded=0;whiteSpace=wrap;html=1;container=0;" parent="1" vertex="1">
          <mxGeometry x="160" y="120" width="40" height="40" as="geometry" />
        </mxCell>
        <mxCell id="Iqcuw4HUmVIINinJ4aH5-11" value="" style="rounded=0;whiteSpace=wrap;html=1;container=0;" parent="1" vertex="1">
          <mxGeometry x="200" y="120" width="40" height="40" as="geometry" />
        </mxCell>
        <mxCell id="Iqcuw4HUmVIINinJ4aH5-12" value="" style="rounded=0;whiteSpace=wrap;html=1;fillColor=#647687;fontColor=#ffffff;container=0;" parent="1" vertex="1">
          <mxGeometry x="240" y="120" width="40" height="40" as="geometry" />
        </mxCell>
        <mxCell id="Iqcuw4HUmVIINinJ4aH5-13" value="" style="rounded=0;whiteSpace=wrap;html=1;fillColor=#647687;fontColor=#ffffff;container=0;" parent="1" vertex="1">
          <mxGeometry x="80" y="160" width="40" height="40" as="geometry" />
        </mxCell>
        <mxCell id="Iqcuw4HUmVIINinJ4aH5-14" value="" style="rounded=0;whiteSpace=wrap;html=1;container=0;" parent="1" vertex="1">
          <mxGeometry x="120" y="160" width="40" height="40" as="geometry" />
        </mxCell>
        <mxCell id="Iqcuw4HUmVIINinJ4aH5-15" value="" style="rounded=0;whiteSpace=wrap;html=1;fillColor=#647687;fontColor=#ffffff;container=0;" parent="1" vertex="1">
          <mxGeometry x="160" y="160" width="40" height="40" as="geometry" />
        </mxCell>
        <mxCell id="Iqcuw4HUmVIINinJ4aH5-16" value="" style="rounded=0;whiteSpace=wrap;html=1;fillColor=#647687;fontColor=#ffffff;container=0;" parent="1" vertex="1">
          <mxGeometry x="200" y="160" width="40" height="40" as="geometry" />
        </mxCell>
        <mxCell id="Iqcuw4HUmVIINinJ4aH5-17" value="" style="rounded=0;whiteSpace=wrap;html=1;container=0;" parent="1" vertex="1">
          <mxGeometry x="240" y="160" width="40" height="40" as="geometry" />
        </mxCell>
        <mxCell id="Iqcuw4HUmVIINinJ4aH5-18" value="" style="rounded=0;whiteSpace=wrap;html=1;fillColor=#647687;fontColor=#ffffff;container=0;" parent="1" vertex="1">
          <mxGeometry x="80" y="200" width="40" height="40" as="geometry" />
        </mxCell>
        <mxCell id="Iqcuw4HUmVIINinJ4aH5-19" value="" style="rounded=0;whiteSpace=wrap;html=1;fillColor=#647687;fontColor=#ffffff;container=0;" parent="1" vertex="1">
          <mxGeometry x="120" y="200" width="40" height="40" as="geometry" />
        </mxCell>
        <mxCell id="Iqcuw4HUmVIINinJ4aH5-20" value="" style="rounded=0;whiteSpace=wrap;html=1;container=0;" parent="1" vertex="1">
          <mxGeometry x="160" y="200" width="40" height="40" as="geometry" />
        </mxCell>
        <mxCell id="Iqcuw4HUmVIINinJ4aH5-21" value="" style="rounded=0;whiteSpace=wrap;html=1;fillColor=#647687;fontColor=#ffffff;container=0;" parent="1" vertex="1">
          <mxGeometry x="200" y="200" width="40" height="40" as="geometry" />
        </mxCell>
        <mxCell id="Iqcuw4HUmVIINinJ4aH5-22" value="" style="rounded=0;whiteSpace=wrap;html=1;container=0;" parent="1" vertex="1">
          <mxGeometry x="240" y="200" width="40" height="40" as="geometry" />
        </mxCell>
        <mxCell id="Iqcuw4HUmVIINinJ4aH5-24" value="$$d^+_1$$" style="text;html=1;strokeColor=none;fillColor=none;align=center;verticalAlign=middle;whiteSpace=wrap;rounded=0;container=0;" parent="1" vertex="1">
          <mxGeometry x="80" y="40" width="40" height="40" as="geometry" />
        </mxCell>
        <mxCell id="Iqcuw4HUmVIINinJ4aH5-25" value="$$d^+_2$$" style="text;html=1;strokeColor=none;fillColor=none;align=center;verticalAlign=middle;whiteSpace=wrap;rounded=0;container=0;" parent="1" vertex="1">
          <mxGeometry x="120" y="40" width="40" height="40" as="geometry" />
        </mxCell>
        <mxCell id="Iqcuw4HUmVIINinJ4aH5-26" value="$$d^+_3$$" style="text;html=1;strokeColor=none;fillColor=none;align=center;verticalAlign=middle;whiteSpace=wrap;rounded=0;container=0;" parent="1" vertex="1">
          <mxGeometry x="160" y="40" width="40" height="40" as="geometry" />
        </mxCell>
        <mxCell id="Iqcuw4HUmVIINinJ4aH5-27" value="$$d^+&lt;br&gt;_4$$" style="text;html=1;strokeColor=none;fillColor=none;align=center;verticalAlign=middle;whiteSpace=wrap;rounded=0;container=0;" parent="1" vertex="1">
          <mxGeometry x="200" y="40" width="40" height="40" as="geometry" />
        </mxCell>
        <mxCell id="4ZEgx2be2nUb7EtOW1EJ-91" value="$$d^+&lt;br&gt;_6$$" style="text;html=1;strokeColor=none;fillColor=none;align=center;verticalAlign=middle;whiteSpace=wrap;rounded=0;container=0;" vertex="1" parent="1">
          <mxGeometry x="280" y="120" width="40" height="40" as="geometry" />
        </mxCell>
        <mxCell id="4ZEgx2be2nUb7EtOW1EJ-92" value="$$d^+&lt;br&gt;_7$$" style="text;html=1;strokeColor=none;fillColor=none;align=center;verticalAlign=middle;whiteSpace=wrap;rounded=0;container=0;" vertex="1" parent="1">
          <mxGeometry x="280" y="160" width="40" height="40" as="geometry" />
        </mxCell>
        <mxCell id="4ZEgx2be2nUb7EtOW1EJ-93" value="$$d^+&lt;br&gt;_5$$" style="text;html=1;strokeColor=none;fillColor=none;align=center;verticalAlign=middle;whiteSpace=wrap;rounded=0;container=0;" vertex="1" parent="1">
          <mxGeometry x="240" y="40" width="40" height="40" as="geometry" />
        </mxCell>
        <mxCell id="4ZEgx2be2nUb7EtOW1EJ-94" value="$$d^+&lt;br&gt;_8$$" style="text;html=1;strokeColor=none;fillColor=none;align=center;verticalAlign=middle;whiteSpace=wrap;rounded=0;container=0;" vertex="1" parent="1">
          <mxGeometry x="280" y="200" width="40" height="40" as="geometry" />
        </mxCell>
        <mxCell id="4ZEgx2be2nUb7EtOW1EJ-109" value="" style="group" vertex="1" connectable="0" parent="1">
          <mxGeometry x="400" y="40" width="248.32999999999987" height="200" as="geometry" />
        </mxCell>
        <mxCell id="4ZEgx2be2nUb7EtOW1EJ-66" value="" style="rounded=0;whiteSpace=wrap;html=1;container=0;" vertex="1" parent="4ZEgx2be2nUb7EtOW1EJ-109">
          <mxGeometry x="39.99666666666661" y="40" width="41.66666666666667" height="40" as="geometry" />
        </mxCell>
        <mxCell id="4ZEgx2be2nUb7EtOW1EJ-67" value="" style="rounded=0;whiteSpace=wrap;html=1;container=0;" vertex="1" parent="4ZEgx2be2nUb7EtOW1EJ-109">
          <mxGeometry x="81.66333333333324" y="40" width="41.66666666666667" height="40" as="geometry" />
        </mxCell>
        <mxCell id="4ZEgx2be2nUb7EtOW1EJ-68" value="" style="rounded=0;whiteSpace=wrap;html=1;fillColor=#647687;fontColor=#ffffff;container=0;" vertex="1" parent="4ZEgx2be2nUb7EtOW1EJ-109">
          <mxGeometry x="123.32999999999998" y="40" width="41.66666666666667" height="40" as="geometry" />
        </mxCell>
        <mxCell id="4ZEgx2be2nUb7EtOW1EJ-69" value="" style="rounded=0;whiteSpace=wrap;html=1;fillColor=#647687;fontColor=#ffffff;container=0;" vertex="1" parent="4ZEgx2be2nUb7EtOW1EJ-109">
          <mxGeometry x="164.9966666666666" y="40" width="41.66666666666667" height="40" as="geometry" />
        </mxCell>
        <mxCell id="4ZEgx2be2nUb7EtOW1EJ-70" value="" style="rounded=0;whiteSpace=wrap;html=1;fillColor=#647687;fontColor=#ffffff;container=0;" vertex="1" parent="4ZEgx2be2nUb7EtOW1EJ-109">
          <mxGeometry x="206.66333333333324" y="40" width="41.66666666666667" height="40" as="geometry" />
        </mxCell>
        <mxCell id="4ZEgx2be2nUb7EtOW1EJ-71" value="" style="rounded=0;whiteSpace=wrap;html=1;container=0;" vertex="1" parent="4ZEgx2be2nUb7EtOW1EJ-109">
          <mxGeometry x="39.99666666666661" y="80" width="41.66666666666667" height="40" as="geometry" />
        </mxCell>
        <mxCell id="4ZEgx2be2nUb7EtOW1EJ-72" value="" style="rounded=0;whiteSpace=wrap;html=1;fillColor=#647687;fontColor=#ffffff;container=0;" vertex="1" parent="4ZEgx2be2nUb7EtOW1EJ-109">
          <mxGeometry x="81.66333333333324" y="80" width="41.66666666666667" height="40" as="geometry" />
        </mxCell>
        <mxCell id="4ZEgx2be2nUb7EtOW1EJ-73" value="" style="rounded=0;whiteSpace=wrap;html=1;container=0;" vertex="1" parent="4ZEgx2be2nUb7EtOW1EJ-109">
          <mxGeometry x="123.32999999999998" y="80" width="41.66666666666667" height="40" as="geometry" />
        </mxCell>
        <mxCell id="4ZEgx2be2nUb7EtOW1EJ-74" value="" style="rounded=0;whiteSpace=wrap;html=1;container=0;" vertex="1" parent="4ZEgx2be2nUb7EtOW1EJ-109">
          <mxGeometry x="164.9966666666666" y="80" width="41.66666666666667" height="40" as="geometry" />
        </mxCell>
        <mxCell id="4ZEgx2be2nUb7EtOW1EJ-75" value="" style="rounded=0;whiteSpace=wrap;html=1;fillColor=#647687;fontColor=#ffffff;container=0;" vertex="1" parent="4ZEgx2be2nUb7EtOW1EJ-109">
          <mxGeometry x="206.66333333333324" y="80" width="41.66666666666667" height="40" as="geometry" />
        </mxCell>
        <mxCell id="4ZEgx2be2nUb7EtOW1EJ-76" value="" style="rounded=0;whiteSpace=wrap;html=1;fillColor=#647687;fontColor=#ffffff;container=0;" vertex="1" parent="4ZEgx2be2nUb7EtOW1EJ-109">
          <mxGeometry x="39.99666666666661" y="120" width="41.66666666666667" height="40" as="geometry" />
        </mxCell>
        <mxCell id="4ZEgx2be2nUb7EtOW1EJ-77" value="" style="rounded=0;whiteSpace=wrap;html=1;container=0;" vertex="1" parent="4ZEgx2be2nUb7EtOW1EJ-109">
          <mxGeometry x="81.66333333333324" y="120" width="41.66666666666667" height="40" as="geometry" />
        </mxCell>
        <mxCell id="4ZEgx2be2nUb7EtOW1EJ-78" value="" style="rounded=0;whiteSpace=wrap;html=1;fillColor=#647687;fontColor=#ffffff;container=0;" vertex="1" parent="4ZEgx2be2nUb7EtOW1EJ-109">
          <mxGeometry x="123.32999999999998" y="120" width="41.66666666666667" height="40" as="geometry" />
        </mxCell>
        <mxCell id="4ZEgx2be2nUb7EtOW1EJ-79" value="" style="rounded=0;whiteSpace=wrap;html=1;fillColor=#647687;fontColor=#ffffff;container=0;" vertex="1" parent="4ZEgx2be2nUb7EtOW1EJ-109">
          <mxGeometry x="164.9966666666666" y="120" width="41.66666666666667" height="40" as="geometry" />
        </mxCell>
        <mxCell id="4ZEgx2be2nUb7EtOW1EJ-80" value="" style="rounded=0;whiteSpace=wrap;html=1;container=0;" vertex="1" parent="4ZEgx2be2nUb7EtOW1EJ-109">
          <mxGeometry x="206.66333333333324" y="120" width="41.66666666666667" height="40" as="geometry" />
        </mxCell>
        <mxCell id="4ZEgx2be2nUb7EtOW1EJ-81" value="" style="rounded=0;whiteSpace=wrap;html=1;fillColor=#647687;fontColor=#ffffff;container=0;" vertex="1" parent="4ZEgx2be2nUb7EtOW1EJ-109">
          <mxGeometry x="39.99666666666661" y="160" width="41.66666666666667" height="40" as="geometry" />
        </mxCell>
        <mxCell id="4ZEgx2be2nUb7EtOW1EJ-82" value="" style="rounded=0;whiteSpace=wrap;html=1;fillColor=#647687;fontColor=#ffffff;container=0;" vertex="1" parent="4ZEgx2be2nUb7EtOW1EJ-109">
          <mxGeometry x="81.66333333333324" y="160" width="41.66666666666667" height="40" as="geometry" />
        </mxCell>
        <mxCell id="4ZEgx2be2nUb7EtOW1EJ-83" value="" style="rounded=0;whiteSpace=wrap;html=1;container=0;" vertex="1" parent="4ZEgx2be2nUb7EtOW1EJ-109">
          <mxGeometry x="123.32999999999998" y="160" width="41.66666666666667" height="40" as="geometry" />
        </mxCell>
        <mxCell id="4ZEgx2be2nUb7EtOW1EJ-84" value="" style="rounded=0;whiteSpace=wrap;html=1;fillColor=#647687;fontColor=#ffffff;container=0;" vertex="1" parent="4ZEgx2be2nUb7EtOW1EJ-109">
          <mxGeometry x="164.9966666666666" y="160" width="41.66666666666667" height="40" as="geometry" />
        </mxCell>
        <mxCell id="4ZEgx2be2nUb7EtOW1EJ-85" value="" style="rounded=0;whiteSpace=wrap;html=1;container=0;" vertex="1" parent="4ZEgx2be2nUb7EtOW1EJ-109">
          <mxGeometry x="206.66333333333324" y="160" width="41.66666666666667" height="40" as="geometry" />
        </mxCell>
        <mxCell id="4ZEgx2be2nUb7EtOW1EJ-97" value="$$d^-_0$$" style="text;html=1;strokeColor=none;fillColor=none;align=center;verticalAlign=middle;whiteSpace=wrap;rounded=0;container=0;" vertex="1" parent="4ZEgx2be2nUb7EtOW1EJ-109">
          <mxGeometry x="39.99999999999994" width="40" height="40" as="geometry" />
        </mxCell>
        <mxCell id="4ZEgx2be2nUb7EtOW1EJ-98" value="$$d^-_{-1}$$" style="text;html=1;strokeColor=none;fillColor=none;align=center;verticalAlign=middle;whiteSpace=wrap;rounded=0;container=0;" vertex="1" parent="4ZEgx2be2nUb7EtOW1EJ-109">
          <mxGeometry x="83.32999999999998" width="40" height="40" as="geometry" />
        </mxCell>
        <mxCell id="4ZEgx2be2nUb7EtOW1EJ-101" value="$$d^-_{-2}$$" style="text;html=1;strokeColor=none;fillColor=none;align=center;verticalAlign=middle;whiteSpace=wrap;rounded=0;container=0;" vertex="1" parent="4ZEgx2be2nUb7EtOW1EJ-109">
          <mxGeometry x="124.99999999999994" width="40" height="40" as="geometry" />
        </mxCell>
        <mxCell id="4ZEgx2be2nUb7EtOW1EJ-102" value="$$d^-_{-3}$$" style="text;html=1;strokeColor=none;fillColor=none;align=center;verticalAlign=middle;whiteSpace=wrap;rounded=0;container=0;" vertex="1" parent="4ZEgx2be2nUb7EtOW1EJ-109">
          <mxGeometry x="164.99999999999994" width="40" height="40" as="geometry" />
        </mxCell>
        <mxCell id="4ZEgx2be2nUb7EtOW1EJ-103" value="$$d^-_{-4}$$" style="text;html=1;strokeColor=none;fillColor=none;align=center;verticalAlign=middle;whiteSpace=wrap;rounded=0;container=0;" vertex="1" parent="4ZEgx2be2nUb7EtOW1EJ-109">
          <mxGeometry x="206.6599999999999" width="40" height="40" as="geometry" />
        </mxCell>
        <mxCell id="4ZEgx2be2nUb7EtOW1EJ-105" value="$$d^-_{1}$$" style="text;html=1;strokeColor=none;fillColor=none;align=center;verticalAlign=middle;whiteSpace=wrap;rounded=0;container=0;" vertex="1" parent="4ZEgx2be2nUb7EtOW1EJ-109">
          <mxGeometry y="80" width="40" height="40" as="geometry" />
        </mxCell>
        <mxCell id="4ZEgx2be2nUb7EtOW1EJ-106" value="$$d^-_{2}$$" style="text;html=1;strokeColor=none;fillColor=none;align=center;verticalAlign=middle;whiteSpace=wrap;rounded=0;container=0;" vertex="1" parent="4ZEgx2be2nUb7EtOW1EJ-109">
          <mxGeometry y="120" width="40" height="40" as="geometry" />
        </mxCell>
        <mxCell id="4ZEgx2be2nUb7EtOW1EJ-107" value="$$d^-_{3}$$" style="text;html=1;strokeColor=none;fillColor=none;align=center;verticalAlign=middle;whiteSpace=wrap;rounded=0;container=0;" vertex="1" parent="4ZEgx2be2nUb7EtOW1EJ-109">
          <mxGeometry y="160" width="40" height="40" as="geometry" />
        </mxCell>
        <mxCell id="4ZEgx2be2nUb7EtOW1EJ-110" value="" style="endArrow=none;dashed=1;html=1;dashPattern=1 3;strokeWidth=2;rounded=0;entryX=0;entryY=1;entryDx=0;entryDy=0;exitX=0;exitY=1;exitDx=0;exitDy=0;" edge="1" parent="1" source="Iqcuw4HUmVIINinJ4aH5-8" target="Iqcuw4HUmVIINinJ4aH5-26">
          <mxGeometry width="50" height="50" relative="1" as="geometry">
            <mxPoint x="90" y="150" as="sourcePoint" />
            <mxPoint x="140" y="100" as="targetPoint" />
          </mxGeometry>
        </mxCell>
        <mxCell id="4ZEgx2be2nUb7EtOW1EJ-115" value="" style="endArrow=none;dashed=1;html=1;dashPattern=1 3;strokeWidth=2;rounded=0;entryX=1;entryY=0;entryDx=0;entryDy=0;exitX=0;exitY=1;exitDx=0;exitDy=0;" edge="1" parent="1" source="Iqcuw4HUmVIINinJ4aH5-18" target="Iqcuw4HUmVIINinJ4aH5-4">
          <mxGeometry width="50" height="50" relative="1" as="geometry">
            <mxPoint x="120" y="200" as="sourcePoint" />
            <mxPoint x="170" y="150" as="targetPoint" />
            <Array as="points" />
          </mxGeometry>
        </mxCell>
        <mxCell id="4ZEgx2be2nUb7EtOW1EJ-117" value="" style="endArrow=none;dashed=1;html=1;dashPattern=1 3;strokeWidth=2;rounded=0;exitX=0.033;exitY=-0.108;exitDx=0;exitDy=0;exitPerimeter=0;entryX=0;entryY=1;entryDx=0;entryDy=0;" edge="1" parent="1" source="Iqcuw4HUmVIINinJ4aH5-8" target="Iqcuw4HUmVIINinJ4aH5-25">
          <mxGeometry width="50" height="50" relative="1" as="geometry">
            <mxPoint x="50" y="120" as="sourcePoint" />
            <mxPoint x="100" y="70" as="targetPoint" />
            <Array as="points" />
          </mxGeometry>
        </mxCell>
        <mxCell id="4ZEgx2be2nUb7EtOW1EJ-118" value="" style="endArrow=none;dashed=1;html=1;dashPattern=1 3;strokeWidth=2;rounded=0;exitX=0;exitY=1;exitDx=0;exitDy=0;entryX=1;entryY=0;entryDx=0;entryDy=0;" edge="1" parent="1" source="Iqcuw4HUmVIINinJ4aH5-22" target="Iqcuw4HUmVIINinJ4aH5-22">
          <mxGeometry width="50" height="50" relative="1" as="geometry">
            <mxPoint x="340" y="260" as="sourcePoint" />
            <mxPoint x="390" y="210" as="targetPoint" />
            <Array as="points" />
          </mxGeometry>
        </mxCell>
        <mxCell id="4ZEgx2be2nUb7EtOW1EJ-120" value="" style="endArrow=none;dashed=1;html=1;dashPattern=1 3;strokeWidth=2;rounded=0;exitX=0;exitY=0;exitDx=0;exitDy=0;entryX=0;entryY=1;entryDx=0;entryDy=0;" edge="1" parent="1" source="Iqcuw4HUmVIINinJ4aH5-18" target="Iqcuw4HUmVIINinJ4aH5-27">
          <mxGeometry width="50" height="50" relative="1" as="geometry">
            <mxPoint x="90" y="250" as="sourcePoint" />
            <mxPoint x="190" y="80" as="targetPoint" />
            <Array as="points">
              <mxPoint x="130" y="150" />
            </Array>
          </mxGeometry>
        </mxCell>
        <mxCell id="4ZEgx2be2nUb7EtOW1EJ-121" value="" style="endArrow=none;dashed=1;html=1;dashPattern=1 3;strokeWidth=2;rounded=0;exitX=0;exitY=1;exitDx=0;exitDy=0;entryX=1;entryY=1;entryDx=0;entryDy=0;" edge="1" parent="1" source="Iqcuw4HUmVIINinJ4aH5-19" target="4ZEgx2be2nUb7EtOW1EJ-93">
          <mxGeometry width="50" height="50" relative="1" as="geometry">
            <mxPoint x="90" y="210" as="sourcePoint" />
            <mxPoint x="210" y="90" as="targetPoint" />
            <Array as="points" />
          </mxGeometry>
        </mxCell>
        <mxCell id="4ZEgx2be2nUb7EtOW1EJ-122" value="" style="endArrow=none;dashed=1;html=1;dashPattern=1 3;strokeWidth=2;rounded=0;exitX=1.117;exitY=0.925;exitDx=0;exitDy=0;entryX=0;entryY=0;entryDx=0;entryDy=0;exitPerimeter=0;" edge="1" parent="1" source="Iqcuw4HUmVIINinJ4aH5-19" target="4ZEgx2be2nUb7EtOW1EJ-91">
          <mxGeometry width="50" height="50" relative="1" as="geometry">
            <mxPoint x="130" y="250" as="sourcePoint" />
            <mxPoint x="290" y="90" as="targetPoint" />
            <Array as="points" />
          </mxGeometry>
        </mxCell>
        <mxCell id="4ZEgx2be2nUb7EtOW1EJ-123" value="" style="endArrow=none;dashed=1;html=1;dashPattern=1 3;strokeWidth=2;rounded=0;exitX=0;exitY=1;exitDx=0;exitDy=0;entryX=0;entryY=0;entryDx=0;entryDy=0;" edge="1" parent="1" source="Iqcuw4HUmVIINinJ4aH5-21" target="4ZEgx2be2nUb7EtOW1EJ-92">
          <mxGeometry width="50" height="50" relative="1" as="geometry">
            <mxPoint x="175" y="247" as="sourcePoint" />
            <mxPoint x="290" y="130" as="targetPoint" />
            <Array as="points" />
          </mxGeometry>
        </mxCell>
      </root>
    </mxGraphModel>
  </diagram>
</mxfile>
